<?xml version="1.0" encoding="UTF-8"?>
<svg version="1.1" xmlns="http://www.w3.org/2000/svg" width="500" height="500">
<path d="M0 0 C165 0 330 0 500 0 C500 165 500 330 500 500 C335 500 170 500 0 500 C0 335 0 170 0 0 Z " fill="#000000" transform="translate(0,0)"/>
<path d="M0 0 C0.89460937 0.67804688 1.78921875 1.35609375 2.7109375 2.0546875 C21.60117201 16.92347153 34.8137039 37.19296553 42 60 C42.31759277 60.97187256 42.31759277 60.97187256 42.64160156 61.96337891 C48.8986685 81.88980683 48.51335675 107.20565456 42 127 C41.77505859 127.69609375 41.55011719 128.3921875 41.31835938 129.109375 C31.48144559 158.8098089 10.69761495 183.51190439 -17 198 C-26.96333601 202.93112121 -37.318555 206.07747389 -48 209 C-45.98626513 211.01373487 -44.62624669 211.69056244 -42.0625 212.8125 C-38.32842009 214.68292841 -36.39874946 215.89117345 -35 220 C-34.38263402 225.11085257 -33.98046136 230.12641554 -36.8125 234.625 C-39 237 -39 237 -42 238 C-41.67386719 238.58007812 -41.34773437 239.16015625 -41.01171875 239.7578125 C-38.56875229 244.12488529 -36.19241179 248.49978632 -34 253 C-38.17068715 253.66811979 -41.86691601 253.9893869 -46 253 C-48.02925789 250.30305081 -49.16597101 247.61292827 -50.48828125 244.515625 C-51.7647022 241.8204807 -51.7647022 241.8204807 -54.35546875 241.046875 C-57.13895158 240.72960569 -57.13895158 240.72960569 -61 241 C-61 244.96 -61 248.92 -61 253 C-64.63 253 -68.26 253 -72 253 C-72 239.14 -72 225.28 -72 211 C-74.64 211 -77.28 211 -80 211 C-80 224.86 -80 238.72 -80 253 C-90 253 -90 253 -92.8828125 250.54296875 C-93.66377827 249.44765512 -94.41041705 248.32723273 -95.125 247.1875 C-95.52895996 246.60524658 -95.93291992 246.02299316 -96.34912109 245.4230957 C-97.1795483 244.22339065 -97.99684337 243.01448966 -98.80078125 241.796875 C-100.65091553 239.02468683 -102.64325303 236.3670452 -104.625 233.6875 C-105.73875 232.140625 -106.8525 230.59375 -108 229 C-108.33 236.92 -108.66 244.84 -109 253 C-112.3 253 -115.6 253 -119 253 C-119 239.14 -119 225.28 -119 211 C-109 211 -109 211 -106.75073242 212.44946289 C-106.29029541 213.1171167 -105.8298584 213.78477051 -105.35546875 214.47265625 C-104.82373047 215.20806641 -104.29199219 215.94347656 -103.74414062 216.70117188 C-103.23044922 217.48041016 -102.71675781 218.25964844 -102.1875 219.0625 C-101.65447266 219.81466797 -101.12144531 220.56683594 -100.57226562 221.34179688 C-99.56746081 222.76578407 -98.57558484 224.19906485 -97.60229492 225.64477539 C-95.45539936 228.80051233 -93.21846034 231.89415552 -91 235 C-90.67 226.75 -90.34 218.5 -90 210 C-93.073125 209.195625 -96.14625 208.39125 -99.3125 207.5625 C-130.63902637 198.85482088 -156.94503153 179.14169284 -173.375 150.9375 C-176.89891071 144.49377756 -179.64422107 137.94912567 -182 131 C-182.36996094 129.92878906 -182.73992187 128.85757813 -183.12109375 127.75390625 C-192.40394224 99.42931728 -189.45405743 67.63596347 -176.18334961 41.01733398 C-165.12782995 20.00940732 -147.21129145 0.85621568 -126 -10 C-125.36223633 -10.33273926 -124.72447266 -10.66547852 -124.06738281 -11.00830078 C-83.83298689 -31.71449293 -36.06351419 -27.36247585 0 0 Z " fill="#5E5F5F" transform="translate(321,105)"/>
<path d="M0 0 C2.14866377 1.63862423 4.25940638 3.3181696 6.375 5 C8.47897429 6.50026982 10.58313565 8.00027735 12.6875 9.5 C18.34116675 13.78330779 22.90095449 18.51415621 27.375 24 C28.18710937 24.97710937 28.99921875 25.95421875 29.8359375 26.9609375 C50.70464779 52.64736162 59.82572322 84.10560999 57.375 117 C54.51310847 143.49481848 42.96232447 166.37892058 25.78466797 186.34814453 C24.63286967 187.69782712 23.51616264 189.07738842 22.41015625 190.46484375 C18.03402025 195.86814126 12.7343949 199.82576636 7.0625 203.80712891 C5.34724633 205.0196187 3.65899768 206.2646809 1.96875 207.51171875 C-7.81176655 214.5481972 -18.26357807 219.07482378 -29.625 223 C-30.29265381 223.23307861 -30.96030762 223.46615723 -31.64819336 223.70629883 C-36.67903938 225.32475702 -38.92460639 224.30746596 -43.625 222 C-45.61321313 221.60235737 -47.61232362 221.24544834 -49.625 221 C-49.625 220.67 -49.625 220.34 -49.625 220 C-48.06265625 219.67128906 -48.06265625 219.67128906 -46.46875 219.3359375 C-15.83622281 212.65601449 11.78287876 197.25756213 29.625 170.7421875 C36.32248252 160.24747159 41.62705292 149.89480048 45.375 138 C45.58672852 137.35208496 45.79845703 136.70416992 46.01660156 136.03662109 C52.2736685 116.11019317 51.88835675 90.79434544 45.375 71 C45.03758789 69.95585937 45.03758789 69.95585937 44.69335938 68.890625 C34.43242272 37.90994575 12.82086814 13.86336381 -16.1640625 -0.7890625 C-45.49845819 -13.93896402 -76.88397238 -15.82225586 -107.1640625 -4.796875 C-114.67603037 -1.8790304 -121.71113668 1.88031161 -128.625 6 C-129.56214844 6.556875 -130.49929687 7.11375 -131.46484375 7.6875 C-158.31699841 25.56135333 -174.08385058 52.47266285 -181.375 83.15625 C-186.98613845 112.77059184 -180.17336625 144.25768059 -163.5 169.17578125 C-143.58390197 196.5959805 -116.98129836 213.63140617 -83.625 220 C-84.285 220.33 -84.945 220.66 -85.625 221 C-85.90560982 223.6271088 -85.90560982 223.6271088 -85.8203125 226.78515625 C-85.81386719 227.95498047 -85.80742187 229.12480469 -85.80078125 230.33007812 C-85.77564453 232.17762695 -85.77564453 232.17762695 -85.75 234.0625 C-85.74097656 235.29806641 -85.73195313 236.53363281 -85.72265625 237.80664062 C-85.69899105 240.8712834 -85.66602345 243.93554825 -85.625 247 C-88.87334134 244.05028667 -91.37262749 241.03616829 -93.82421875 237.390625 C-94.39462891 236.55402344 -94.96503906 235.71742188 -95.55273438 234.85546875 C-96.72712301 233.11669579 -97.88088551 231.36381455 -99.01367188 229.59765625 C-99.59052734 228.76621094 -100.16738281 227.93476563 -100.76171875 227.078125 C-101.26405029 226.31918945 -101.76638184 225.56025391 -102.28393555 224.77832031 C-105.47124758 222.03557418 -105.47124758 222.03557418 -114.625 222 C-114.625 235.86 -114.625 249.72 -114.625 264 C-114.955 264 -115.285 264 -115.625 264 C-115.625 249.81 -115.625 235.62 -115.625 221 C-113.975 220.67 -112.325 220.34 -110.625 220 C-111.61757812 219.61070312 -112.61015625 219.22140625 -113.6328125 218.8203125 C-123.71529645 214.72285898 -132.03545163 209.64129241 -140.625 203 C-141.46804687 202.37996094 -142.31109375 201.75992188 -143.1796875 201.12109375 C-151.9622873 194.57213092 -159.16970837 186.81771771 -165.625 178 C-166.18832031 177.26523437 -166.75164062 176.53046875 -167.33203125 175.7734375 C-180.44231263 158.07603735 -189.73454434 134.11298218 -190.625 112 C-190.6765625 110.94296875 -190.728125 109.8859375 -190.78125 108.796875 C-191.6883318 73.26950449 -176.58582443 41.95709342 -153 16.125 C-149.11935672 12.13947447 -145.27742636 9.06478587 -140.625 6 C-139.66464844 5.25363281 -138.70429688 4.50726563 -137.71484375 3.73828125 C-99.83667138 -25.40960604 -39.25084867 -28.56269408 0 0 Z " fill="#0C0C0C" transform="translate(316.625,94)"/>
<path d="M0 0 C8.69254739 8.41214264 16.2759694 17.68912902 23.64892578 27.25048828 C24.91462817 28.88945166 26.18830683 30.52181353 27.46484375 32.15234375 C62.18497624 76.77643624 62.18497624 76.77643624 60 101 C58.42286462 110.41067558 53.63906502 119.73448463 46.0625 125.6875 C29.46338115 136.25057563 11.09256428 133.49056675 -7.31640625 129.49755859 C-11.58141221 128.45781612 -15.78425747 127.2230858 -20 126 C-22.99205926 125.28206621 -25.98880264 124.63393629 -29 124 C-27.4569792 120.31201074 -25.2480844 117.94050193 -22.375 115.1875 C-21.14910156 113.97126953 -21.14910156 113.97126953 -19.8984375 112.73046875 C-15.98365962 110.39320918 -13.23627343 111.06562282 -9 112 C-7.3047197 112.31267466 -5.60940568 112.62516648 -3.9140625 112.9375 C-2.15043882 113.28865241 -0.38742042 113.64285754 1.375 114 C2.72658203 114.26683594 2.72658203 114.26683594 4.10546875 114.5390625 C4.96527344 114.71179688 5.82507813 114.88453125 6.7109375 115.0625 C7.87568604 115.29646484 7.87568604 115.29646484 9.06396484 115.53515625 C11 116 11 116 13 117 C20.49212605 117.68825305 27.20354907 118.13538336 33.38671875 113.421875 C33.91910156 112.95265625 34.45148438 112.4834375 35 112 C35.94875 111.195625 36.8975 110.39125 37.875 109.5625 C42.2483222 104.28878793 42.24467073 99.08485121 42.36328125 92.48828125 C41.29923434 82.27114267 37.15839299 73.89934171 32.27801514 65.03442383 C30.25715073 61.35919131 28.27777771 57.66172587 26.296875 53.96484375 C25.87550262 53.17975433 25.45413025 52.39466492 25.01998901 51.58578491 C19.6210349 41.48406459 14.49751597 31.24382251 9.375 21 C8.66902679 19.59486649 8.66902679 19.59486649 7.9487915 18.16134644 C6.61501197 15.50561631 5.28692347 12.84712837 3.9609375 10.1875 C3.55868958 9.38699722 3.15644165 8.58649445 2.74200439 7.76173401 C0 2.2305188 0 2.2305188 0 0 Z " fill="#9DFAF9" transform="translate(277,151)"/>
<path d="M0 0 C7.63372891 6.06493292 11.97409224 13.92434714 13.84375 23.46484375 C15.09893829 39.88517584 11.51228695 55.94993911 7.21875 71.71484375 C7.01290283 72.4713623 6.80705566 73.22788086 6.5949707 74.00732422 C5.10095408 79.20763967 5.10095408 79.20763967 2.84375 81.46484375 C0.95925013 79.65572388 -0.88444086 77.82372951 -2.71875 75.96484375 C-3.25177734 75.45953125 -3.78480469 74.95421875 -4.33398438 74.43359375 C-7.30836658 71.36326373 -8.15625 70.15401606 -8.15625 65.72265625 C-7.85909793 64.29537161 -7.52242204 62.8759989 -7.15625 61.46484375 C-6.96732178 60.64918945 -6.77839355 59.83353516 -6.58374023 58.99316406 C-6.1638555 57.20894382 -5.73179551 55.42755343 -5.28881836 53.64892578 C-0.56263003 36.14592774 -0.56263003 36.14592774 -4.75 19.1484375 C-8.28318513 14.91842975 -12.63957565 11.39952891 -18.15625 10.46484375 C-34.86799866 9.03106503 -46.63345544 15.52625391 -60.7421875 23.44921875 C-65.13602658 25.9158818 -69.56906121 28.24903258 -74.09375 30.46484375 C-80.75310501 33.73656456 -87.3337189 37.14713944 -93.90625 40.58984375 C-95.87490674 41.61736621 -97.84365381 42.6447156 -99.8125 43.671875 C-102.94272184 45.30548692 -106.06817913 46.94725462 -109.1875 48.6015625 C-110.78078125 49.43107422 -110.78078125 49.43107422 -112.40625 50.27734375 C-113.27765625 50.73753906 -114.1490625 51.19773438 -115.046875 51.671875 C-117.15625 52.46484375 -117.15625 52.46484375 -120.15625 51.46484375 C-119.70378906 51.12195313 -119.25132812 50.7790625 -118.78515625 50.42578125 C-113.39145388 46.28619115 -108.14083425 41.98958732 -102.90625 37.65234375 C-95.77453423 31.75786499 -88.56521765 26.00934185 -81.15625 20.46484375 C-80.42615723 19.91795898 -79.69606445 19.37107422 -78.94384766 18.80761719 C-28.26755355 -19.05742852 -28.26755355 -19.05742852 0 0 Z " fill="#4FFAF8" transform="translate(323.15625,116.53515625)"/>
<path d="M0 0 C-8.88121377 11.42716171 -8.88121377 11.42716171 -15.0625 12.5625 C-18 12 -18 12 -21.0390625 11.09765625 C-25.73980341 9.73900719 -30.51167848 8.80552535 -35.3125 7.875 C-36.19873047 7.69324219 -37.08496094 7.51148437 -37.99804688 7.32421875 C-46.33679677 5.70634313 -54.58139213 4.36000521 -62.24609375 8.7265625 C-66.20080348 11.59791077 -69.23149356 15.43586328 -71 20 C-72.56713302 35.42388817 -68.15887373 46.59116599 -60.5078125 59.78417969 C-57.76915999 64.52502142 -55.34228804 69.33605169 -53.0625 74.3125 C-50.26091218 80.41518355 -47.28063296 86.38499425 -44.125 92.3125 C-40.46706898 99.20222308 -36.84689842 106.10842379 -33.3125 113.0625 C-32.86600098 113.92593018 -32.41950195 114.78936035 -31.95947266 115.67895508 C-31.55647949 116.47712646 -31.15348633 117.27529785 -30.73828125 118.09765625 C-30.19747925 119.15738647 -30.19747925 119.15738647 -29.64575195 120.23852539 C-29.43265381 120.81981201 -29.21955566 121.40109863 -29 122 C-29.33 122.66 -29.66 123.32 -30 124 C-37.4125072 115.48790622 -44.59799037 106.85442688 -51.50341797 97.92626953 C-53.11838599 95.8476239 -54.74765255 93.7807301 -56.37890625 91.71484375 C-64.26043233 81.70676396 -71.84313648 71.54031662 -79 61 C-79.639375 60.06671875 -80.27875 59.1334375 -80.9375 58.171875 C-88.65359367 46.21192981 -90.70313916 32.97824122 -89 19 C-86.78578689 9.68397892 -81.57568219 2.15055446 -73.90625 -3.55859375 C-51.70866987 -17.11037727 -22.82904071 -6.97337592 0 0 Z " fill="#A4FBFA" transform="translate(252,120)"/>
<path d="M0 0 C3.85001526 1.28333842 5.06305352 3.12893164 7.625 6.25 C8.42164063 7.20390625 9.21828125 8.1578125 10.0390625 9.140625 C11.97912327 11.96955823 12.78600948 13.60993966 13 17 C12.32274195 18.82859673 11.63645511 20.65441461 10.90234375 22.4609375 C7.09504547 33.17411448 3.72683123 49.68221506 8.5625 60.625 C11.50492901 65.36441245 15.70213798 69.23404599 21 71 C22.9753988 71.14779962 24.95678924 71.22118966 26.9375 71.25 C27.97777344 71.27578125 29.01804688 71.3015625 30.08984375 71.328125 C41.21821177 70.39427594 50.36856552 66.16323264 60.0625 60.9375 C61.35408082 60.25404949 62.64632646 59.57185399 63.93920898 58.89086914 C67.6336458 56.94113139 71.31711864 54.97147407 75 53 C78.18485643 51.3074763 81.37266726 49.62062443 84.5625 47.9375 C85.62597656 47.37603271 85.62597656 47.37603271 86.7109375 46.80322266 C93.48810644 43.2407503 100.30025149 39.7466859 107.1322937 36.290802 C108.41356444 35.64140524 109.69346918 34.9893059 110.97195435 34.33444214 C112.75991105 33.41963888 114.55366845 32.51619981 116.34765625 31.61328125 C117.38929932 31.08516846 118.43094238 30.55705566 119.50415039 30.01293945 C120.32778076 29.67866943 121.15141113 29.34439941 122 29 C122.66 29.33 123.32 29.66 124 30 C116.80281122 36.2800058 109.57576725 42.44890038 101.95703125 48.21508789 C98.47490655 50.85329837 95.05629275 53.55525683 91.6652832 56.30957031 C48.60901923 91.2356951 48.60901923 91.2356951 23.14941406 89.27050781 C14.10312633 88.13201544 5.21470835 83.67830555 -1 77 C-9.49467599 64.75228828 -10.72303443 50.85393144 -8.62207031 36.39996338 C-7.50927308 30.30811556 -6.01636094 24.3140553 -4.5 18.3125 C-4.06442427 16.52066293 -3.63082135 14.72834511 -3.19921875 12.93554688 C-2.15534524 8.61784774 -1.08543753 4.30742924 0 0 Z " fill="#D6FBFA" transform="translate(172,196)"/>
<path d="M0 0 C3.96 -0.0825 7.92 -0.165 12 -0.25 C13.84851563 -0.30462402 13.84851563 -0.30462402 15.734375 -0.36035156 C22.66502478 -0.42992739 27.12425362 0.2514401 33 4 C36.08437658 7.18076335 36.24634148 10.16250032 36.4375 14.4375 C36.2988904 19.57298577 35.47476146 22.22740184 32 26 C31.01 26.33 30.02 26.66 29 27 C29.48919922 27.87011719 29.48919922 27.87011719 29.98828125 28.7578125 C32.43124771 33.12488529 34.80758821 37.49978632 37 42 C32.82931285 42.66811979 29.13308399 42.9893869 25 42 C22.97074211 39.30305081 21.83402899 36.61292827 20.51171875 33.515625 C19.2352978 30.8204807 19.2352978 30.8204807 16.64453125 30.046875 C13.86104842 29.72960569 13.86104842 29.72960569 10 30 C10 33.96 10 37.92 10 42 C6.7 42 3.4 42 0 42 C0 28.14 0 14.28 0 0 Z " fill="#FCFCFC" transform="translate(250,316)"/>
<path d="M0 0 C10 0 10 0 12.46459961 1.77246094 C13.30003296 2.9911084 13.30003296 2.9911084 14.15234375 4.234375 C14.78333984 5.11867188 15.41433594 6.00296875 16.06445312 6.9140625 C16.68255859 7.84992188 17.30066406 8.78578125 17.9375 9.75 C18.58267578 10.67039062 19.22785156 11.59078125 19.89257812 12.5390625 C21.09055149 14.25222648 22.27507009 15.97493921 23.44116211 17.70996094 C24.89826957 19.85055107 26.44632572 21.92843429 28 24 C28.33 16.08 28.66 8.16 29 0 C32.63 0 36.26 0 40 0 C40 14.19 40 28.38 40 43 C29 43 29 43 25.2578125 39.30859375 C24.17540661 37.71006505 23.13161625 36.08480696 22.125 34.4375 C21.59648437 33.63763672 21.06796875 32.83777344 20.5234375 32.01367188 C19.5269199 30.50286239 18.54569605 28.98175051 17.58642578 27.44702148 C15.49815729 24.22592036 13.23125508 21.12375711 11 18 C10.67 26.25 10.34 34.5 10 43 C6.7 43 3.4 43 0 43 C0 28.81 0 14.62 0 0 Z " fill="#F2F2F2" transform="translate(334,315)"/>
<path d="M0 0 C10 0 10 0 12.24926758 1.44946289 C12.70970459 2.1171167 13.1701416 2.78477051 13.64453125 3.47265625 C14.44213867 4.57577148 14.44213867 4.57577148 15.25585938 5.70117188 C15.76955078 6.48041016 16.28324219 7.25964844 16.8125 8.0625 C17.34552734 8.81466797 17.87855469 9.56683594 18.42773438 10.34179688 C19.43253919 11.76578407 20.42441516 13.19906485 21.39770508 14.64477539 C23.54460064 17.80051233 25.78153966 20.89415552 28 24 C28.33 16.08 28.66 8.16 29 0 C32.3 0 35.6 0 39 0 C39 13.86 39 27.72 39 42 C29 42 29 42 26.1171875 39.54296875 C25.33622173 38.44765512 24.58958295 37.32723273 23.875 36.1875 C23.47104004 35.60524658 23.06708008 35.02299316 22.65087891 34.4230957 C21.8204517 33.22339065 21.00315663 32.01448966 20.19921875 30.796875 C18.34908447 28.02468683 16.35674697 25.3670452 14.375 22.6875 C12.704375 20.3671875 12.704375 20.3671875 11 18 C10.67 25.92 10.34 33.84 10 42 C6.7 42 3.4 42 0 42 C0 28.14 0 14.28 0 0 Z " fill="#FBFBFB" transform="translate(202,316)"/>
<path d="M0 0 C11.22 0 22.44 0 34 0 C34 2.97 34 5.94 34 9 C26.74 9 19.48 9 12 9 C12 11.64 12 14.28 12 17 C18.6 17 25.2 17 32 17 C32 19.97 32 22.94 32 26 C25.07 26 18.14 26 11 26 C11 28.97 11 31.94 11 35 C18.59 35 26.18 35 34 35 C34 37.64 34 40.28 34 43 C22.78 43 11.56 43 0 43 C0 28.81 0 14.62 0 0 Z " fill="#F1F1F1" transform="translate(293,315)"/>
<path d="M0 0 C4.01248901 -1.07999704 7.03765914 -1.37157953 11 0 C14.87754762 4.24696628 20 12.10293166 20 18 C20.66 18 21.32 18 22 18 C22.2475 17.236875 22.495 16.47375 22.75 15.6875 C26.33613355 5.10840601 26.33613355 5.10840601 30 1 C33.81976013 0.04900057 37.14749844 0.32135649 41 1 C39.65686543 6.06843234 37.23804464 10.16581448 34.60644531 14.64208984 C29.04190509 24.17083587 24.99628841 31.68894246 26 43 C22.7 43 19.4 43 16 43 C16.06703125 42.24460937 16.1340625 41.48921875 16.203125 40.7109375 C16.3980903 26.83590667 8.47927268 15.72527598 1.31982422 4.32446289 C0 2 0 2 0 0 Z " fill="#F8F8F8" transform="translate(156,315)"/>
<path d="M0 0 C3.3 0 6.6 0 10 0 C10 10.89 10 21.78 10 33 C15.94 33 21.88 33 28 33 C28 35.97 28 38.94 28 42 C18.76 42 9.52 42 0 42 C0 28.14 0 14.28 0 0 Z " fill="#FFFFFF" transform="translate(127,316)"/>
<path d="M0 0 C3.34262215 2.65963445 4.92765022 4.68155671 5.42578125 8.96875 C5.60634627 14.4712314 4.96404483 17.6169038 1.1875 21.91796875 C-3.0333917 24.4875911 -6.99585271 24.57858531 -11.8125 23.91796875 C-15.92543161 22.01383374 -17.46166002 20.51779195 -19.75 16.60546875 C-20.96560494 12.38660454 -21.03715416 10.12771743 -19.8125 5.91796875 C-17.91947626 2.74351355 -15.66110282 0.44547861 -12.5 -1.51953125 C-8.03801816 -2.45343443 -3.93965692 -2.35190726 0 0 Z " fill="#7EFCFB" transform="translate(255.8125,184.08203125)"/>
<path d="M0 0 C-0.97791504 0.07528931 -0.97791504 0.07528931 -1.97558594 0.15209961 C-2.64364258 0.43190674 -3.31169922 0.71171387 -4 1 C-4.55984847 3.51736725 -4.55984847 3.51736725 -4.390625 6.56640625 C-4.37773437 7.69111328 -4.36484375 8.81582031 -4.3515625 9.97460938 C-4.30128906 11.75061523 -4.30128906 11.75061523 -4.25 13.5625 C-4.22292969 15.34430664 -4.22292969 15.34430664 -4.1953125 17.16210938 C-4.14797511 20.10886177 -4.08205131 23.05404234 -4 26 C-8.41786797 25.2525885 -10.77611902 24.22388098 -14 21 C-16.2516156 16.39442263 -16.32080407 12.93100185 -15 8 C-13.07631629 4.75424795 -10.83761708 2.4606894 -7.5 0.625 C-4.89744496 -0.02563876 -2.67184073 -0.15267661 0 0 Z " fill="#C8FDFC" transform="translate(251,182)"/>
<path d="M0 0 C11.75470707 -0.27987398 11.75470707 -0.27987398 15 2 C16.0625 5.3125 16.0625 5.3125 16 9 C14.25 11.9375 14.25 11.9375 11 14 C7.22814238 14.41262958 3.81535362 14.22984058 0 14 C0 9.38 0 4.76 0 0 Z " fill="#121212" transform="translate(260,324)"/>
<path d="M0 0 C8.415 1.98 8.415 1.98 17 4 C17 10.27 17 16.54 17 23 C16.34 23 15.68 23 15 23 C13.31115591 20.8448556 11.73693718 18.68977466 10.1875 16.4375 C9.54844727 15.52387695 9.54844727 15.52387695 8.89648438 14.59179688 C8.03334947 13.3578143 7.17382494 12.12129875 6.31787109 10.88232422 C4.96653845 8.95220664 3.57180561 7.05809983 2.17578125 5.16015625 C0 2 0 2 0 0 Z " fill="#040404" transform="translate(213,316)"/>
<path d="M0 0 C2.88302028 0.19220135 3.83378212 0.81003671 5.75 3 C7.4600788 7.10418911 7.70000537 10.61535095 7 15 C5.25 18.5625 5.25 18.5625 3 21 C1.68 21 0.36 21 -1 21 C-1.02888146 17.68751813 -1.04675799 14.37506833 -1.0625 11.0625 C-1.07087891 10.11697266 -1.07925781 9.17144531 -1.08789062 8.19726562 C-1.09111328 7.29814453 -1.09433594 6.39902344 -1.09765625 5.47265625 C-1.10289307 4.64000244 -1.10812988 3.80734863 -1.11352539 2.94946289 C-1 1 -1 1 0 0 Z " fill="#33FAF8" transform="translate(254,185)"/>
<path d="M0 0 C-0.97791504 0.07528931 -0.97791504 0.07528931 -1.97558594 0.15209961 C-2.64364258 0.43190674 -3.31169922 0.71171387 -4 1 C-4.55984847 3.51736725 -4.55984847 3.51736725 -4.390625 6.56640625 C-4.37773437 7.69111328 -4.36484375 8.81582031 -4.3515625 9.97460938 C-4.31804687 11.15861328 -4.28453125 12.34261719 -4.25 13.5625 C-4.23195312 14.75037109 -4.21390625 15.93824219 -4.1953125 17.16210938 C-4.14797511 20.10886177 -4.08205131 23.05404234 -4 26 C-5.96899414 25.83203125 -5.96899414 25.83203125 -8 25 C-8.50170898 22.69921875 -8.50170898 22.69921875 -8.49609375 19.6875 C-8.49673828 18.61242187 -8.49738281 17.53734375 -8.49804688 16.4296875 C-8.47806641 15.29789063 -8.45808594 14.16609375 -8.4375 13 C-8.44458984 11.86820313 -8.45167969 10.73640625 -8.45898438 9.5703125 C-8.41040294 3.33694098 -8.41040294 3.33694098 -8 1 C-5.07175348 0.02391783 -3.04386724 -0.08226668 0 0 Z " fill="#A2FCFB" transform="translate(251,182)"/>
<path d="M0 0 C0.66 0 1.32 0 2 0 C1.98952637 0.6612085 1.97905273 1.32241699 1.96826172 2.00366211 C1.92684728 4.98156984 1.90072064 7.95941717 1.875 10.9375 C1.85824219 11.97841797 1.84148437 13.01933594 1.82421875 14.09179688 C1.81777344 15.08115234 1.81132812 16.07050781 1.8046875 17.08984375 C1.79421387 18.00628662 1.78374023 18.92272949 1.77294922 19.86694336 C1.84787598 20.57085205 1.92280273 21.27476074 2 22 C2.66 22.33 3.32 22.66 4 23 C2.35 23 0.7 23 -1 23 C-1.02887512 19.35418313 -1.04675585 15.70839537 -1.0625 12.0625 C-1.07087891 11.02158203 -1.07925781 9.98066406 -1.08789062 8.90820312 C-1.09272461 7.42416992 -1.09272461 7.42416992 -1.09765625 5.91015625 C-1.10289307 4.99371338 -1.10812988 4.07727051 -1.11352539 3.13305664 C-1 1 -1 1 0 0 Z " fill="#60FDFC" transform="translate(251,184)"/>
<path d="M0 0 C2.0625 0.4375 2.0625 0.4375 4 1 C3.67 1.66 3.34 2.32 3 3 C2.71536926 5.69392929 2.48849336 8.36158864 2.3125 11.0625 C2.25255859 11.80822266 2.19261719 12.55394531 2.13085938 13.32226562 C2.00561675 15.2111989 1.99371073 17.10692972 2 19 C2.66 19.33 3.32 19.66 4 20 C2.35 20.33 0.7 20.66 -1 21 C-1.02888146 17.68751813 -1.04675799 14.37506833 -1.0625 11.0625 C-1.07087891 10.11697266 -1.07925781 9.17144531 -1.08789062 8.19726562 C-1.09111328 7.29814453 -1.09433594 6.39902344 -1.09765625 5.47265625 C-1.10289307 4.64000244 -1.10812988 3.80734863 -1.11352539 2.94946289 C-1 1 -1 1 0 0 Z " fill="#48FCFA" transform="translate(254,185)"/>
<path d="M0 0 C2.64 0 5.28 0 8 0 C8 1.98 8 3.96 8 6 C5.36 6 2.72 6 0 6 C0 4.02 0 2.04 0 0 Z " fill="#0B0B0B" transform="translate(241,316)"/>
<path d="M0 0 C0.33 0 0.66 0 1 0 C1 5.61 1 11.22 1 17 C-2.14283195 13.85716805 -2.66221432 12.4012895 -3.078125 8.07421875 C-2.95759818 4.87423181 -1.71739598 2.64214766 0 0 Z " fill="#E8F9F9" transform="translate(238,187)"/>
<path d="M0 0 C0.66 0.33 1.32 0.66 2 1 C1.484375 1.45375 0.96875 1.9075 0.4375 2.375 C-0.2740625 3.179375 -0.2740625 3.179375 -1 4 C-0.67 4.66 -0.34 5.32 0 6 C-1.26418246 6.69965443 -2.53665402 7.38434763 -3.8125 8.0625 C-4.52019531 8.44535156 -5.22789062 8.82820312 -5.95703125 9.22265625 C-8 10 -8 10 -11 9 C-10.37351563 8.51789063 -9.74703125 8.03578125 -9.1015625 7.5390625 C-7.87566406 6.59160156 -7.87566406 6.59160156 -6.625 5.625 C-5.81289062 4.99851563 -5.00078125 4.37203125 -4.1640625 3.7265625 C-1.95776805 2.03226506 -1.95776805 2.03226506 0 0 Z " fill="#CFD7D7" transform="translate(214,159)"/>
<path d="M0 0 C-1.28627711 1.17260611 -2.57919783 2.3379283 -3.875 3.5 C-4.59429687 4.1496875 -5.31359375 4.799375 -6.0546875 5.46875 C-8 7 -8 7 -10 7 C-10 5.68 -10 4.36 -10 3 C-8.3203125 1.69921875 -8.3203125 1.69921875 -6.125 0.6875 C-5.04605469 0.16736328 -5.04605469 0.16736328 -3.9453125 -0.36328125 C-2 -1 -2 -1 0 0 Z " fill="#D3D3D3" transform="translate(296,226)"/>
<path d="M0 0 C2.64465038 3.1254959 3.84414715 6.08788267 5 10 C0.125 5.375 0.125 5.375 -1 2 C-0.67 1.34 -0.34 0.68 0 0 Z " fill="#78CDCC" transform="translate(218,234)"/>
</svg>
